PathFileType	4	(X/Y/Z)	C:\Users\WrightLab\Desktop\Jo\P3_21.trc
DataRate	CameraRate	NumFrames	NumMarkers	Units	OrigDataRate	OrigDataStartFrame	OrigNumFrames
100.00	100.00	       18	19	mm	100.00	308	       614
Frame#	Time	Headset_Front			Headset_Back			Headset_Left			Headset_Right			Left_Shoulder			Right_Shoulder			Sternum			C7			Left Elbow			Right Elbow			Left Wrist			Right Wrist			Left ASIS			Right ASIS			S2			Left Knee			Right Knee			Left Ankle			Right Ankle			
		X1	Y1	Z1	X2	Y2	Z2	X3	Y3	Z3	X4	Y4	Z4	X5	Y5	Z5	X6	Y6	Z6	X7	Y7	Z7	X8	Y8	Z8	X9	Y9	Z9	X10	Y10	Z10	X11	Y11	Z11	X12	Y12	Z12	X13	Y13	Z13	X14	Y14	Z14	X15	Y15	Z15	X16	Y16	Z16	X17	Y17	Z17	X18	Y18	Z18	X19	Y19	Z19	

308	3.070	-679.08649	1412.09277	-82.65781	-700.16272	1622.13757	133.46677	-800.25513	1529.71643	41.79444	-581.08435	1486.94580	4.52904	-850.47839	1327.38037	237.70396	-513.37988	1347.33899	123.13234	-720.09717	1213.53601	64.34121	-666.96960	1397.84937	222.68459	-898.75031	996.04236	299.42422	-366.58868	1034.47839	58.89466	-934.75659	809.65936	216.40907	-346.02371	913.35938	-132.47609	-792.72333	865.47247	136.28029	-564.43311	867.25427	31.13548	-592.40417	941.34875	278.47726	-785.13470	446.70297	195.93059	-610.67535	453.77417	-47.31628	-763.07166	115.64780	218.01953	-520.40503	227.28468	189.43091	
309	3.080	-681.02075	1411.18335	-89.69641	-704.08533	1625.30090	125.84595	-803.03748	1529.87280	33.72169	-583.69067	1486.80310	-1.29937	-854.77118	1328.12610	230.20438	-517.28241	1348.01453	117.37061	-723.21991	1213.93103	58.04600	-671.44360	1398.39990	216.02457	-906.53033	997.55621	290.14041	-371.07620	1033.34717	57.61035	-942.36261	811.18164	206.16722	-348.88184	910.06567	-132.80104	-796.41620	865.30896	130.25868	-568.18555	868.90894	23.08434	-596.42340	941.55450	273.23529	-787.47510	447.02008	192.80789	-615.54791	456.52423	-57.93116	-763.38177	115.69882	217.59003	-532.10370	220.52698	172.89938	
310	3.090	-682.77283	1410.46643	-96.71117	-707.36353	1622.67542	116.48068	-806.58203	1529.01428	24.79884	-585.99176	1486.37915	-7.83565	-859.34637	1328.55884	222.56424	-520.46423	1347.89368	112.80350	-726.71167	1213.87512	51.46321	-675.70850	1398.76575	209.15158	-912.18292	996.99847	282.02371	-374.02603	1031.73523	55.29741	-949.33929	812.81970	195.78897	-352.64374	907.23114	-133.81313	-799.95471	865.64099	123.62051	-571.28497	869.99194	17.85493	-601.32043	941.95148	267.48880	-788.34924	446.92303	190.89857	-619.80212	459.22928	-68.78021	-763.61700	116.04897	216.81822	-543.02429	214.76126	157.06290	
311	3.100	-684.72986	1409.78210	-104.56061	-711.17377	1625.28308	108.59485	-808.24603	1528.58374	17.59221	-588.79773	1485.94434	-14.81013	-862.89850	1328.90833	214.73541	-523.70386	1347.50659	105.56044	-729.83575	1213.82813	45.02837	-680.88361	1397.89929	203.59097	-918.59894	998.29993	272.45309	-378.64569	1030.19275	53.98923	-956.13879	814.57135	185.63525	-355.49414	903.82941	-133.93242	-803.08118	865.08063	117.91538	-573.71790	869.40350	15.00897	-604.73816	942.17102	261.65930	-789.53253	446.49985	189.24702	-623.48071	461.77048	-78.02658	-763.59381	116.03630	216.24922	-553.73462	207.25520	138.22958	
312	3.110	-686.07861	1408.40625	-110.86411	-714.58307	1624.83569	101.44370	-811.27747	1528.27856	8.48061	-591.16608	1484.36475	-21.86871	-866.90039	1329.12744	207.40164	-527.11591	1346.96021	101.59123	-733.22546	1213.50122	38.28405	-685.26959	1397.00391	195.99422	-925.58246	999.77844	263.41824	-382.46048	1028.47229	52.81146	-963.14502	814.56903	174.37912	-358.37344	899.59326	-133.53313	-805.94037	864.19958	112.64111	-577.07916	869.36279	8.83159	-610.64417	942.04413	257.07626	-790.63843	445.83649	187.48441	-626.78931	463.42612	-86.65086	-763.61743	115.98894	216.15186	-564.92755	200.05910	120.19457	
313	3.120	-688.26300	1407.47473	-118.45260	-717.85431	1624.70740	93.54150	-814.06195	1527.94299	-0.25367	-593.55536	1484.40369	-28.49450	-871.47510	1329.72888	198.93140	-530.41339	1346.03748	94.81880	-736.37109	1212.91650	31.93734	-690.48126	1396.59937	185.50082	-931.61853	998.91357	254.55434	-386.76605	1026.90576	50.78379	-969.94385	816.21777	165.60701	-362.33701	896.12805	-134.00008	-810.28894	863.39838	106.31392	-579.78088	869.57202	4.30176	-613.96649	941.68756	251.91359	-791.70239	445.81332	185.34901	-629.44629	464.89877	-95.95780	-763.67950	115.88511	215.71497	-575.22620	192.08165	101.28288	
314	3.130	-689.95020	1406.62952	-125.21696	-721.57617	1624.38208	85.44791	-816.54523	1526.87793	-8.61670	-595.96301	1484.02563	-34.37094	-875.20532	1329.84363	190.77028	-533.46436	1345.98303	89.34434	-739.29401	1212.61047	24.98728	-693.56519	1397.55835	180.82791	-937.23218	1000.10565	246.03201	-390.68784	1025.85010	48.62027	-976.19177	817.14423	157.05182	-366.62537	891.69788	-133.78227	-813.45245	862.09833	100.44348	-582.72369	868.90649	0.15374	-618.53876	942.68372	246.21808	-792.73444	445.13986	182.82047	-632.06549	466.79218	-104.56590	-763.71277	115.86162	215.59346	-585.69098	184.97734	82.03674	
315	3.140	-691.61469	1405.58801	-132.37585	-724.79639	1623.86780	77.17612	-819.27545	1525.94617	-16.31979	-598.00385	1483.33154	-41.10920	-878.60754	1329.67114	182.89876	-536.65735	1345.09424	82.93025	-742.48584	1211.83179	18.46793	-696.86902	1397.83923	174.31393	-944.00293	1000.43878	237.61070	-395.27151	1022.80402	47.14129	-983.17090	818.50513	146.48584	-370.41388	887.20953	-133.52490	-816.66589	861.15729	94.75348	-585.52936	868.82776	-5.31849	-621.64117	942.24493	240.76312	-793.66010	444.95471	180.49667	-634.79407	467.41318	-112.19751	-763.51440	116.29919	214.82935	-596.62909	176.09966	62.72961	
316	3.150	-693.40900	1404.59143	-140.04050	-727.70282	1623.19592	69.19358	-821.71143	1525.10059	-24.45840	-600.28143	1482.54016	-48.25340	-882.42670	1329.59668	173.92427	-539.55933	1344.34839	77.17750	-745.28699	1211.17139	10.56984	-700.01337	1398.19580	164.28438	-949.42377	1000.98212	227.66461	-399.17099	1021.38318	45.15238	-989.68134	819.69537	136.07233	-374.59763	883.15869	-134.18246	-819.69482	860.66040	87.40090	-588.78204	869.00153	-13.32519	-625.59082	941.77594	234.72775	-794.59424	445.05972	177.45763	-637.66638	467.75217	-119.57706	-763.38983	116.47162	214.07115	-607.17200	168.46878	42.03019	
317	3.160	-694.78040	1403.01221	-146.23042	-730.73657	1622.84668	61.14464	-827.00787	1525.52930	-35.11908	-602.45135	1481.97095	-55.31279	-886.52588	1329.16614	166.57864	-542.63843	1343.52344	69.71790	-747.97717	1210.11719	3.97594	-702.91553	1396.96936	160.44768	-954.89417	1000.76727	219.67741	-403.59448	1020.15747	42.76833	-995.80933	820.57605	125.31174	-379.42334	878.39246	-134.16415	-822.42432	859.40735	81.89497	-591.56061	866.66077	-15.83465	-628.67664	941.21381	228.97874	-795.68823	444.26508	175.26988	-639.85992	467.54431	-125.84819	-763.33325	116.70762	213.22981	-616.96527	161.02197	21.49008	
318	3.170	-696.78259	1402.18225	-153.78276	-733.88940	1618.96558	52.26294	-826.94202	1523.89893	-41.41481	-604.78101	1481.16638	-62.35146	-890.13831	1328.78015	157.88425	-545.66663	1342.20410	63.53883	-751.01648	1208.76868	-3.90241	-707.24335	1396.11426	151.59850	-961.03650	1001.16547	209.26753	-407.50510	1017.92688	40.20616	-1002.11267	821.69519	114.90755	-383.91861	873.57855	-134.13872	-825.81866	858.30945	75.40017	-595.12842	867.30835	-24.01680	-632.04089	941.23560	223.05795	-796.55756	444.12689	172.53003	-642.21198	467.91602	-133.01826	-763.36829	116.66794	212.08435	-627.08655	153.37846	1.18176	
319	3.180	-698.73621	1401.07788	-161.33817	-736.79901	1621.00964	45.73924	-828.95898	1522.69336	-49.53594	-607.21680	1479.78723	-68.95778	-893.57709	1328.30249	149.38123	-548.90796	1340.90881	58.91736	-753.76715	1207.91882	-10.90377	-710.51752	1395.50952	144.24484	-966.87915	1000.87549	200.22862	-411.76352	1016.21313	37.47966	-1008.60181	822.95483	103.73586	-388.20355	868.28900	-134.03716	-828.60626	857.25623	68.63366	-595.70984	866.77417	-32.53645	-635.35632	941.30731	216.98851	-797.27362	443.61697	169.48647	-644.70825	466.86041	-138.55736	-763.48242	116.65803	211.31569	-636.16730	146.33467	-20.20193	
320	3.190	-700.20093	1400.04871	-168.50136	-739.46228	1620.26050	38.18537	-831.31354	1521.29907	-57.21033	-609.72552	1478.40735	-75.58429	-896.89130	1327.48938	141.06190	-552.05164	1340.00745	51.15932	-755.94189	1206.25635	-18.29096	-714.31097	1394.73096	136.77805	-972.01947	1001.16418	191.35745	-415.94122	1013.93011	35.32500	-1014.26886	822.92395	92.98294	-393.04871	863.31793	-134.29036	-830.98602	856.13098	62.27033	-598.69653	864.65411	-35.22144	-637.78851	939.91449	209.65376	-798.16376	443.65860	166.31212	-646.67218	465.56415	-143.25346	-763.59131	116.72607	211.17616	-645.44232	139.25291	-40.72296	
321	3.200	-701.32837	1398.69922	-176.32796	-742.50476	1619.10510	30.42646	-833.01251	1520.28589	-65.59784	-611.79510	1477.15979	-82.16198	-899.95557	1326.67676	132.37126	-554.54852	1338.51892	45.25255	-758.34601	1204.68872	-25.21116	-716.82227	1394.18835	129.85051	-977.38422	999.83014	181.40340	-420.57108	1012.21112	32.55230	-1019.31763	822.56769	83.65210	-397.80591	858.38666	-134.01846	-833.75409	855.32813	54.30693	-600.36987	864.23901	-40.26876	-640.88538	940.32111	203.69861	-798.74506	443.21747	163.86601	-648.82483	463.71011	-148.24149	-763.83728	116.95966	210.43703	-654.36920	133.55757	-62.79381	
322	3.210	-703.10693	1397.54077	-183.01740	-745.34552	1617.93665	22.52559	-834.96271	1519.83276	-74.70310	-614.16833	1475.80969	-88.87283	-903.34473	1325.90735	123.10204	-557.11218	1337.11755	37.97708	-760.63684	1203.44995	-32.16554	-720.14136	1392.30933	121.78921	-981.97870	999.41370	172.45789	-423.29462	1010.90863	29.61169	-1024.92554	822.73633	72.57085	-402.86783	853.29388	-134.17322	-835.81506	854.13666	46.87067	-602.56543	863.30023	-47.28479	-644.13232	939.56042	195.97675	-799.73975	443.12772	159.96877	-650.73724	461.49432	-150.26768	-764.09961	117.28407	208.84258	-662.12891	128.72786	-85.17799	
323	3.220	-705.03589	1396.58191	-190.74800	-747.96484	1616.79712	15.29236	-837.24274	1518.40247	-81.80338	-616.05579	1474.67493	-96.24664	-906.55457	1324.59033	114.99760	-559.94330	1336.61987	31.09169	-763.18933	1202.21716	-40.77100	-724.90741	1391.20911	111.33413	-987.17786	998.78351	162.18983	-428.54837	1008.00812	26.31119	-1030.28918	822.99774	62.32486	-407.69943	847.87225	-134.14749	-838.51648	853.58167	38.91890	-604.58557	861.59747	-53.92002	-647.28802	938.93158	190.08437	-800.84961	442.75946	156.71863	-653.00140	459.03424	-154.24062	-764.18463	117.36066	208.68315	-669.30554	123.28912	-105.80981	
324	3.230	-706.95856	1395.67529	-198.74655	-750.36316	1615.31152	7.50337	-839.46198	1516.97461	-90.05236	-618.16351	1473.36755	-103.28391	-909.40417	1323.19580	107.04349	-562.55176	1335.05627	24.73406	-765.09369	1200.91138	-47.77561	-726.72333	1390.40857	105.79703	-992.23730	998.32349	152.82472	-432.09460	1006.14661	23.62454	-1034.93176	822.41040	51.56441	-413.62830	842.34082	-134.31792	-840.41632	852.59717	31.12976	-606.49933	861.04010	-62.18224	-651.18445	938.10919	182.98199	-801.74036	442.23599	153.15549	-655.17944	456.49902	-157.41655	-761.66193	116.28759	209.71915	-676.80011	119.84946	-127.81969	
325	3.240	-708.49908	1394.26282	-206.33716	-752.54999	1614.30261	-0.57321	-841.49988	1515.87561	-98.14496	-619.51184	1472.09607	-111.00731	-912.27075	1322.06128	98.01583	-564.82910	1333.78516	17.02539	-767.28040	1199.67188	-55.74292	-729.59235	1388.09167	97.06451	-996.36926	997.37549	142.87227	-436.06253	1004.42786	20.24375	-1039.82874	822.44440	40.45701	-418.66135	837.42804	-134.96744	-842.54523	851.66510	22.93130	-608.08386	858.76050	-67.62746	-653.85071	936.50299	175.57053	-802.55176	442.10410	149.25916	-657.58691	454.48843	-160.09773	-761.53046	116.75336	208.96658	-683.57819	117.27617	-150.09146	
